<svg id="Layer_1" data-name="Layer 1" xmlns="http://www.w3.org/2000/svg" xmlns:xlink="http://www.w3.org/1999/xlink" viewBox="0 0 256 256"><defs><style>.cls-1{fill:#f78f22;}.cls-2{fill:url(#linear-gradient);}.cls-3{fill:#fff;}</style><linearGradient id="linear-gradient" x1="72.57" y1="182.94" x2="217.26" y2="38.25" gradientTransform="matrix(1, 0, 0, -1, 0, 258)" gradientUnits="userSpaceOnUse"><stop offset="0" stop-color="#949490"/><stop offset="0.22" stop-color="#acaaa8"/><stop offset="0.56" stop-color="#cfcdcc"/><stop offset="0.83" stop-color="#e7e6e6"/><stop offset="1" stop-color="#f1f0f0"/></linearGradient></defs><circle class="cls-1" cx="128" cy="128" r="128"/><path class="cls-2" d="M255.2,142.35l-33.6-33.6h0l-1.53.64-2.15-2.17L130.24,71.13,42.6,107.21l0,0h0l5.15,5.15-8.86-3.64v3.93l.07,0,29.55,29.55v3.58h0a2.07,2.07,0,0,0,0,.35v39.44a1.64,1.64,0,0,0,.41,1.14l68.87,68.86A128,128,0,0,0,255.2,142.35Z"/><path class="cls-3" d="M130.24,71.13,42.6,107.21l28,11.54,51.16-19.9a4.85,4.85,0,1,1,3.53,9L83.62,124.1l46.62,19.19,87.65-36.08Z"/><path class="cls-3" d="M130.24,155.37,83.91,136.29v22.94c0,7.72,20.74,20.47,46.33,20.47s46.34-12.75,46.34-20.47V136.29Z"/><polygon class="cls-3" points="130.24 146.34 79.81 125.58 78.16 126.22 78.16 128.84 130.24 150.28 221.6 112.67 221.6 108.74 130.24 146.34"/><path class="cls-3" d="M125.44,102.63a2,2,0,0,0-2.62-1.15l-51.53,20v9.88a1.49,1.49,0,0,0,0,.21,4,4,0,0,0-2.8,3.83v10.38h0a2.07,2.07,0,0,0,0,.35v39.44c0,.74.39,1.35.88,1.35s.88-.61.88-1.35V146.51l.69.13v39c0,.74.39,1.35.88,1.35s.88-.61.88-1.35V146.8h.69v38.83c0,.74.39,1.35.88,1.35s.88-.61.88-1.35v-39l.69-.13v39.12c0,.74.39,1.35.88,1.35s.88-.61.88-1.35V146.19a1.86,1.86,0,0,0,0-.34l0,0V135.45a4.06,4.06,0,0,0-2.32-3.64,2.58,2.58,0,0,0,0-.4v-7.12l49-19A2,2,0,0,0,125.44,102.63Z"/><polygon class="cls-3" points="68.47 120.91 38.89 108.74 38.89 112.67 68.47 124.85 68.47 120.91"/></svg>