<svg id="Layer_1" data-name="Layer 1" xmlns="http://www.w3.org/2000/svg" xmlns:xlink="http://www.w3.org/1999/xlink" viewBox="0 0 442.05 149.86"><defs><style>.cls-1,.cls-12,.cls-15,.cls-16,.cls-19,.cls-21,.cls-22,.cls-24,.cls-3,.cls-5,.cls-7,.cls-8{fill:none;}.cls-1,.cls-10,.cls-11,.cls-12,.cls-13,.cls-15,.cls-16,.cls-2,.cls-21,.cls-23,.cls-4{stroke:#000;}.cls-1,.cls-24{stroke-width:0.25px;}.cls-13,.cls-15,.cls-2,.cls-23,.cls-25,.cls-8{stroke-width:0.5px;}.cls-2{fill:url(#linear-gradient);}.cls-3{stroke:#369;opacity:0.72;}.cls-12,.cls-3,.cls-7{stroke-width:2px;}.cls-17,.cls-18,.cls-3{isolation:isolate;}.cls-4{fill:url(#linear-gradient-2);}.cls-6{fill:#666;}.cls-7{stroke:#666;}.cls-24,.cls-8{stroke:#131312;}.cls-9{fill:#131312;}.cls-10{fill:url(#linear-gradient-3);}.cls-11{fill:#aae2cf;}.cls-13{fill:url(#linear-gradient-4);}.cls-14{fill:#09c;stroke:#300;}.cls-17{opacity:0.11;fill:url(#linear-gradient-5);}.cls-18{opacity:0.28;fill:url(#linear-gradient-6);}.cls-19{stroke:#069;}.cls-20{fill:#069;}.cls-21{stroke-width:0.75px;}.cls-22,.cls-25{stroke:#19619c;}.cls-24{stroke-dasharray:2 2;}.cls-25{fill:#19619c;}</style><linearGradient id="linear-gradient" x1="72.35" y1="144.81" x2="72.35" y2="154.22" gradientTransform="matrix(1, 0, 0, -1, -13.79, 154.47)" gradientUnits="userSpaceOnUse"><stop offset="0" stop-color="#fff"/><stop offset="0.1" stop-color="#fafafc"/><stop offset="0.23" stop-color="#ebecf2"/><stop offset="0.36" stop-color="#d2d6e3"/><stop offset="0.5" stop-color="#b0b6cd"/><stop offset="0.65" stop-color="#848db2"/><stop offset="0.81" stop-color="#4e5a90"/><stop offset="0.96" stop-color="#0f2069"/><stop offset="1" stop-color="#00125f"/></linearGradient><linearGradient id="linear-gradient-2" x1="47.55" y1="39.02" x2="98.84" y2="39.02" gradientTransform="matrix(1, 0, 0, -1, -13.79, 154.47)" gradientUnits="userSpaceOnUse"><stop offset="0" stop-color="#fff"/><stop offset="0.1" stop-color="#f4fbff"/><stop offset="0.26" stop-color="#d6f1ff"/><stop offset="0.49" stop-color="#a6e0ff"/><stop offset="0.75" stop-color="#64caff"/><stop offset="1" stop-color="#1fb2ff"/></linearGradient><linearGradient id="linear-gradient-3" x1="371.61" y1="60.83" x2="452.51" y2="60.83" gradientTransform="matrix(1, 0, 0, -1, -13.79, 154.47)" gradientUnits="userSpaceOnUse"><stop offset="0" stop-color="#fff"/><stop offset="0.08" stop-color="#f6f9fc"/><stop offset="0.22" stop-color="#ddeaf2"/><stop offset="0.4" stop-color="#b5d2e3"/><stop offset="0.61" stop-color="#7db0ce"/><stop offset="0.84" stop-color="#3785b4"/><stop offset="1" stop-color="#00639f"/></linearGradient><linearGradient id="linear-gradient-4" x1="412.06" y1="134.59" x2="412.06" y2="153.91" gradientTransform="matrix(1, 0, 0, -1, -13.79, 154.47)" gradientUnits="userSpaceOnUse"><stop offset="0" stop-color="#fff"/><stop offset="0.1" stop-color="#fafafb"/><stop offset="0.23" stop-color="#ebedf0"/><stop offset="0.36" stop-color="#d2d6dd"/><stop offset="0.5" stop-color="#b0b7c4"/><stop offset="0.65" stop-color="#848fa2"/><stop offset="0.81" stop-color="#4e5e7a"/><stop offset="0.96" stop-color="#0f254a"/><stop offset="1" stop-color="#00173f"/></linearGradient><linearGradient id="linear-gradient-5" x1="176.47" y1="118.06" x2="289.94" y2="118.06" gradientTransform="matrix(1, 0, 0, -1, -13.79, 154.47)" gradientUnits="userSpaceOnUse"><stop offset="0" stop-color="#fff"/><stop offset="0.13" stop-color="#faffff"/><stop offset="0.28" stop-color="#ecffff"/><stop offset="0.44" stop-color="#d6fffe"/><stop offset="0.61" stop-color="#b5fffd"/><stop offset="0.78" stop-color="#8dfffc"/><stop offset="0.83" stop-color="#7ffffc"/></linearGradient><linearGradient id="linear-gradient-6" x1="289.98" y1="85.74" x2="176.49" y2="85.74" gradientTransform="matrix(1, 0, 0, -1, 0, 156)" gradientUnits="userSpaceOnUse"><stop offset="0" stop-color="#fff"/><stop offset="0.1" stop-color="#fafeff"/><stop offset="0.21" stop-color="#ecfaff"/><stop offset="0.32" stop-color="#d5f4ff"/><stop offset="0.44" stop-color="#b5ebff"/><stop offset="0.57" stop-color="#8ce0ff"/><stop offset="0.7" stop-color="#5ad2ff"/><stop offset="0.83" stop-color="#1fc2ff"/></linearGradient></defs><path d="M13.91,119.84,16,117.38,14.81,115h.92l.41.87c.15.32.29.63.41.92L17.94,115h1l-2,2.46,1.22,2.39h-.91l-.49-1c-.1-.21-.22-.47-.35-.79L15,119.84Z" transform="translate(-13.79 -1.53)"/><line class="cls-1" x1="7.73" y1="149.86" x2="7.73" y2="9.63"/><path d="M13.79,82.35A6.22,6.22,0,0,1,14,80.44a2.52,2.52,0,0,1,.73-1.12A1.87,1.87,0,0,1,16,78.93a1.93,1.93,0,0,1,1,.22,1.8,1.8,0,0,1,.67.62,3.54,3.54,0,0,1,.41,1,6.64,6.64,0,0,1,.15,1.58,6.19,6.19,0,0,1-.24,1.9,2.37,2.37,0,0,1-.72,1.12,1.88,1.88,0,0,1-1.22.39,1.85,1.85,0,0,1-1.52-.69A4.42,4.42,0,0,1,13.79,82.35Zm.84,0A4.13,4.13,0,0,0,15,84.54a1.14,1.14,0,0,0,1,.55,1.11,1.11,0,0,0,1-.55,4.13,4.13,0,0,0,.39-2.19,4.2,4.2,0,0,0-.39-2.2,1.13,1.13,0,0,0-1-.54,1,1,0,0,0-.9.48A4.27,4.27,0,0,0,14.63,82.35Z" transform="translate(-13.79 -1.53)"/><rect class="cls-2" x="7.73" y="0.25" width="101.67" height="9.41"/><path class="cls-3" d="M45.88,38c0-4.38,12.4-9,26.9-9S99,30.78,99,33s-11.76,4-26.26,4S45.84,32.69,45.84,28" transform="translate(-13.79 -1.53)"/><path class="cls-3" d="M45.93,47.86c0-4.38,12.4-9,26.9-9s26.25,1.78,26.25,4-11.75,4-26.25,4S45.88,42.6,45.88,38" transform="translate(-13.79 -1.53)"/><path class="cls-3" d="M46,57.74c0-4.38,12.4-9,26.89-9s26.26,1.78,26.26,4-11.76,4-26.26,4-26.94-4.26-26.94-8.91" transform="translate(-13.79 -1.53)"/><path class="cls-3" d="M46,67.64c0-4.37,12.4-9,26.9-9s26.25,1.78,26.25,4-11.75,4-26.25,4S46,62.38,46,57.74" transform="translate(-13.79 -1.53)"/><path class="cls-3" d="M46.06,77.53c0-4.38,12.4-9,26.9-9s26.25,1.78,26.25,4-11.75,4-26.25,4S46,72.27,46,67.62" transform="translate(-13.79 -1.53)"/><path class="cls-3" d="M46.1,87.44c0-4.38,12.4-9,26.9-9s26.25,1.78,26.25,4-11.75,4-26.25,4-26.94-4.26-26.94-8.91" transform="translate(-13.79 -1.53)"/><path class="cls-3" d="M73.43,104.39c0-8.18-27.33-3.9-27.33-17.09" transform="translate(-13.79 -1.53)"/><path class="cls-3" d="M73.17,11c0,8.18-27.33,3.9-27.33,17.09" transform="translate(-13.79 -1.53)"/><rect class="cls-4" x="33.76" y="101.53" width="51.29" height="27.85"/><line class="cls-1" x1="8.31" y1="80.78" x2="94.14" y2="80.78"/><line class="cls-1" x1="7.73" y1="115.84" x2="60.38" y2="115.84"/><line class="cls-5" x1="59.37" y1="115.16" x2="59.37" y2="64.35"/><path class="cls-6" d="M73.16,66.39,71.34,67.5l0-.06,1.18-3c.23-1,.45-2.07.68-3.11l.69,3.11,1.18,3,0,.06Z" transform="translate(-13.79 -1.53)"/><line class="cls-7" x1="59.37" y1="115.16" x2="59.37" y2="64.35"/><path class="cls-6" d="M73.16,66.91l-3.65,2.21L69.43,69l2.36-6c.46-2.07.91-4.15,1.37-6.22.46,2.07.91,4.15,1.37,6.22l2.36,6-.06.12Z" transform="translate(-13.79 -1.53)"/><line class="cls-5" x1="59.4" y1="116.53" x2="59.4" y2="140.81"/><path class="cls-6" d="M73.19,141.81l1.83-1.1,0,.06-1.18,3-.69,3.11c-.22-1-.45-2.07-.68-3.11l-1.18-3,0-.06Z" transform="translate(-13.79 -1.53)"/><line class="cls-7" x1="59.4" y1="116.53" x2="59.4" y2="140.81"/><path class="cls-6" d="M73.19,141.3l3.65-2.22.09.12-2.37,6c-.45,2.07-.91,4.14-1.36,6.22q-.69-3.12-1.37-6.22l-2.37-6,.07-.12Z" transform="translate(-13.79 -1.53)"/><path d="M80.13,96.88l1.4-6.69h4.35l-.16.76H82.26l-.44,2.13h3.52l-.16.76H81.66l-.64,3Z" transform="translate(-13.79 -1.53)"/><path d="M93.1,93H88.68v-.77H93.1Zm0,2H88.68v-.77H93.1Z" transform="translate(-13.79 -1.53)"/><path d="M96.33,94.87l.18-.82H99l-.17.82Z" transform="translate(-13.79 -1.53)"/><path d="M99.33,96.88l1.41-6.69h.82l-.87,4.15L103.1,92h1.09l-2.07,1.81,1.25,3h-.9l-1-2.49-1,.87-.34,1.62Z" transform="translate(-13.79 -1.53)"/><path d="M103.68,96.88l2.1-2.46L104.57,92h.92l.41.87c.15.32.29.63.41.92l1.4-1.79h1l-2,2.45,1.22,2.4H107l-.49-1c-.1-.21-.22-.47-.35-.78l-1.44,1.77Z" transform="translate(-13.79 -1.53)"/><line class="cls-8" x1="67.52" y1="87.14" x2="72.06" y2="87.14"/><path class="cls-9" d="M85.59,88.67,85,87.76l0,0,1.49.59,1.55.34L86.56,89l-1.49.59h0Z" transform="translate(-13.79 -1.53)"/><circle cx="59.41" cy="115.86" r="1.44"/><path d="M80.11,142.72l1.4-6.7H84.3a2.72,2.72,0,0,1,1.09.17,1.36,1.36,0,0,1,.6.57,1.74,1.74,0,0,1,.24.91,2.33,2.33,0,0,1-.17.84,2.24,2.24,0,0,1-.43.71,2.18,2.18,0,0,1-.52.42,2.78,2.78,0,0,1-.57.21,5.7,5.7,0,0,1-1.3.15H81.57L81,142.72Zm1.62-3.48H83.2a3.29,3.29,0,0,0,1.26-.18,1.62,1.62,0,0,0,.65-.57,1.47,1.47,0,0,0,.24-.8,1.08,1.08,0,0,0-.13-.54.75.75,0,0,0-.36-.3,2.57,2.57,0,0,0-.9-.1H82.25Z" transform="translate(-13.79 -1.53)"/><path d="M93.45,138.78H89V138h4.42Zm0,2H89V140h4.42Z" transform="translate(-13.79 -1.53)"/><path d="M96.55,142.72l1-4.85h.82l-.17.8a3.53,3.53,0,0,1,.83-.72,1.61,1.61,0,0,1,.78-.19,1.11,1.11,0,0,1,1.16.91,2.6,2.6,0,0,1,.78-.69,1.75,1.75,0,0,1,.86-.22,1.25,1.25,0,0,1,.91.29,1.06,1.06,0,0,1,.3.8,4.07,4.07,0,0,1-.1.74l-.66,3.13h-.82l.66-3.21A2.9,2.9,0,0,0,103,139a.47.47,0,0,0-.15-.37.56.56,0,0,0-.42-.14,1.5,1.5,0,0,0-.76.22,1.67,1.67,0,0,0-.59.59,3.71,3.71,0,0,0-.37,1.12l-.5,2.35H99.4l.68-3.28a2.38,2.38,0,0,0,.07-.47.52.52,0,0,0-.14-.38.53.53,0,0,0-.39-.15,1.49,1.49,0,0,0-.74.22,1.78,1.78,0,0,0-.62.63,3.32,3.32,0,0,0-.4,1.14l-.48,2.29Z" transform="translate(-13.79 -1.53)"/><path d="M104.3,143.15l.83.08a1,1,0,0,0,.07.43.58.58,0,0,0,.25.21,1.37,1.37,0,0,0,.58.1,1.34,1.34,0,0,0,1.08-.38,3,3,0,0,0,.39-1.14l.08-.39a1.86,1.86,0,0,1-1.36.65,1.62,1.62,0,0,1-1.24-.54,2.18,2.18,0,0,1-.49-1.53,3,3,0,0,1,.39-1.5,2.85,2.85,0,0,1,.93-1,2,2,0,0,1,1.11-.35,1.62,1.62,0,0,1,1.47.9l.16-.79h.76l-1,4.68a3.62,3.62,0,0,1-.42,1.2,1.73,1.73,0,0,1-.72.67,2.44,2.44,0,0,1-1.07.23,3,3,0,0,1-1-.15,1.24,1.24,0,0,1-.63-.44,1.08,1.08,0,0,1-.2-.66A1.1,1.1,0,0,1,104.3,143.15Zm1-2.58a2.08,2.08,0,0,0,.1.75,1.14,1.14,0,0,0,.39.53.88.88,0,0,0,.56.19,1.41,1.41,0,0,0,.81-.29,2,2,0,0,0,.65-.88,2.91,2.91,0,0,0,.25-1.14,1.32,1.32,0,0,0-.33-.95,1.08,1.08,0,0,0-.82-.36,1.18,1.18,0,0,0-.59.17,1.69,1.69,0,0,0-.52.49,2.14,2.14,0,0,0-.37.79A2.7,2.7,0,0,0,105.33,140.57Z" transform="translate(-13.79 -1.53)"/><line class="cls-8" x1="67.6" y1="132.59" x2="72.14" y2="132.59"/><path class="cls-9" d="M85.67,134.12l-.55-.92,0,0,1.49.59,1.55.35-1.55.34-1.49.59,0,0Z" transform="translate(-13.79 -1.53)"/><path d="M56.62,125.71l1-4.85h.83l-.17.8a3.22,3.22,0,0,1,.82-.71,1.57,1.57,0,0,1,.79-.2,1.19,1.19,0,0,1,.76.24,1.17,1.17,0,0,1,.4.67,2.62,2.62,0,0,1,.78-.69,1.83,1.83,0,0,1,.86-.22,1.31,1.31,0,0,1,.91.29,1.06,1.06,0,0,1,.3.81,3.53,3.53,0,0,1-.11.73l-.65,3.13h-.82L63,122.5a2.9,2.9,0,0,0,.09-.56.47.47,0,0,0-.15-.37.62.62,0,0,0-.43-.14,1.49,1.49,0,0,0-.75.22,1.78,1.78,0,0,0-.6.59,4,4,0,0,0-.37,1.12l-.49,2.35h-.83l.69-3.28a2.38,2.38,0,0,0,.07-.47.51.51,0,0,0-.53-.53,1.57,1.57,0,0,0-.74.22,1.73,1.73,0,0,0-.63.63,3.56,3.56,0,0,0-.39,1.14l-.48,2.29Z" transform="translate(-13.79 -1.53)"/><path d="M360.89,85.77l1.17-5.61h1l-.19.92a3.62,3.62,0,0,1,.95-.82,1.92,1.92,0,0,1,.91-.23,1.36,1.36,0,0,1,.88.28,1.29,1.29,0,0,1,.46.77,3.26,3.26,0,0,1,.9-.79,2.1,2.1,0,0,1,1-.26,1.43,1.43,0,0,1,1.05.34,1.19,1.19,0,0,1,.35.93,5.08,5.08,0,0,1-.12.86l-.75,3.61h-1l.77-3.71a3.2,3.2,0,0,0,.1-.65.56.56,0,0,0-.17-.43.69.69,0,0,0-.49-.16,1.72,1.72,0,0,0-.87.26,1.9,1.9,0,0,0-.7.68,4.91,4.91,0,0,0-.43,1.29l-.57,2.72h-.95L365,82a2.53,2.53,0,0,0,.08-.55.57.57,0,0,0-.17-.44.6.6,0,0,0-.44-.17,1.74,1.74,0,0,0-.86.26,1.91,1.91,0,0,0-.72.72,4,4,0,0,0-.46,1.32l-.56,2.65Z" transform="translate(-13.79 -1.53)"/><circle class="cls-10" cx="398.27" cy="93.65" r="40.45"/><circle class="cls-11" cx="398.27" cy="93.65" r="31.28"/><circle cx="398.27" cy="93.65" r="1.4"/><line class="cls-12" x1="367.87" y1="19.25" x2="398.1" y2="49.47"/><line class="cls-12" x1="428.85" y1="19.47" x2="398.62" y2="49.7"/><rect class="cls-13" x="354.73" y="0.56" width="87.07" height="19.32"/><circle class="cls-14" cx="398.23" cy="50.04" r="3.15"/><path d="M422.5,49.74a4.69,4.69,0,0,1,1.2-3.35,3.82,3.82,0,0,1,2.9-1.29,3.12,3.12,0,0,1,2.36.95,3.48,3.48,0,0,1,.92,2.53,5,5,0,0,1-.46,2.1,4.51,4.51,0,0,1-.87,1.25,4,4,0,0,1-1.12.81,3.9,3.9,0,0,1-1.68.38,3.3,3.3,0,0,1-1.7-.45,2.76,2.76,0,0,1-1.15-1.24A3.66,3.66,0,0,1,422.5,49.74Zm1,0a2.91,2.91,0,0,0,.28,1.26,2,2,0,0,0,.85.89A2.38,2.38,0,0,0,427,52a3.28,3.28,0,0,0,1-.79A3.77,3.77,0,0,0,428.6,50a4.68,4.68,0,0,0,.24-1.45,2.6,2.6,0,0,0-.64-1.85,2.13,2.13,0,0,0-1.6-.69,2.83,2.83,0,0,0-2.15,1A4.05,4.05,0,0,0,423.52,49.79Z" transform="translate(-13.79 -1.53)"/><path d="M418.3,85.77,419.93,78h3.25a4.94,4.94,0,0,1,1.46.16,1.43,1.43,0,0,1,.78.61,2,2,0,0,1,.28,1.12,2.16,2.16,0,0,1-.62,1.57,3.47,3.47,0,0,1-2,.81,2.52,2.52,0,0,1,.64.61,6.57,6.57,0,0,1,.79,1.41l.59,1.46h-1.16l-.55-1.44A7.48,7.48,0,0,0,422.7,83a1.45,1.45,0,0,0-.54-.52,2.45,2.45,0,0,0-.9-.12h-1.2l-.72,3.44Zm1.93-4.28h1.44q1,0,1.29,0a2.49,2.49,0,0,0,1-.26,1.46,1.46,0,0,0,.79-1.31,1.15,1.15,0,0,0-.15-.59.77.77,0,0,0-.4-.34,2.81,2.81,0,0,0-.85-.09h-2.53Z" transform="translate(-13.79 -1.53)"/><line class="cls-5" x1="398.23" y1="93.47" x2="427.27" y2="79.36"/><path d="M440.13,81.34,436.54,79l.08-.12,6.39-.48,6.19-1.48-5,3.94-4.32,4.73h-.14Z" transform="translate(-13.79 -1.53)"/><line class="cls-15" x1="398.23" y1="93.47" x2="427.27" y2="79.36"/><path d="M440.6,81.11,438.8,80l0-.06,3.19-.24,3.1-.74-2.5,2-2.16,2.37h-.07Z" transform="translate(-13.79 -1.53)"/><path class="cls-16" d="M448.71,134.87a50.38,50.38,0,0,1-73.31.32" transform="translate(-13.79 -1.53)"/><path d="M375.89,135.72l-.78,2.88-.1,0-1.67-4.16L371,130.61l3.7,2.49L378.8,135l0,.09Z" transform="translate(-13.79 -1.53)"/><path d="M448.22,135.39l-2.93-.61,0-.1,4.05-1.91,3.68-2.53-2.28,3.84-1.63,4.17-.09,0Z" transform="translate(-13.79 -1.53)"/><ellipse class="cls-17" cx="219.41" cy="36.41" rx="56.73" ry="11.39"/><path class="cls-18" d="M233.23,102.46c30.62,0,48.54-32.41,56.75-64.4l0,.09c0,6.29-25.4,11.39-56.74,11.39s-56.73-5.1-56.73-11.39v-.09c8.21,32,26.13,64.4,56.75,64.4" transform="translate(-13.79 -1.53)"/><line class="cls-1" x1="219.43" y1="148.62" x2="219.43" y2="6.68"/><path d="M233.22,9.59l-2.78,1.7-.07-.1,1.81-4.53c.34-1.59.69-3.17,1-4.75.35,1.58.69,3.16,1,4.75l1.81,4.53,0,.1Z" transform="translate(-13.79 -1.53)"/><path d="M170.1,148.2l2-2.36L171,143.55h.88l.39.83c.15.31.28.6.39.89l1.34-1.72h1l-2,2.35,1.17,2.3h-.88l-.46-.95c-.1-.2-.21-.45-.34-.75l-1.38,1.7Z" transform="translate(-13.79 -1.53)"/><path d="M177.19,151h-.53v-3.35a2.59,2.59,0,0,1-.49.36,2.91,2.91,0,0,1-.56.28v-.51a3.3,3.3,0,0,0,.77-.5,2,2,0,0,0,.47-.58h.34Z" transform="translate(-13.79 -1.53)"/><line class="cls-19" x1="229.03" y1="106.39" x2="228.15" y2="106.51"/><path class="cls-20" d="M242.77,107.93l2.18,2.7-.09.08-5.06-1.27-5.16-.44,4.87-1.77,4.55-2.54.1,0Z" transform="translate(-13.79 -1.53)"/><line class="cls-19" x1="189.89" y1="111.92" x2="189.19" y2="111.37"/><path class="cls-20" d="M203.64,113.42l-.41,3.45h-.12l-2.62-4.51q-1.65-2-3.29-4l4.66,2.25,5,1.48,0,.1Z" transform="translate(-13.79 -1.53)"/><path d="M247.93,109v.16a2.08,2.08,0,0,0-.64.53,1.46,1.46,0,0,0-.28.68,4.63,4.63,0,0,0-.07.75,3.61,3.61,0,0,0,.09.84,2.21,2.21,0,0,0,.26.69,1.41,1.41,0,0,0,.4.46,1.47,1.47,0,0,0,.58.22l-.1-3a2.09,2.09,0,0,1,.09-.57,1,1,0,0,1,.28-.52A1.11,1.11,0,0,1,249,109a1.23,1.23,0,0,1,.39-.06,1.61,1.61,0,0,1,.43.07,1.42,1.42,0,0,1,.45.28,2.67,2.67,0,0,1,.44.49,2.4,2.4,0,0,1,.32.7,3.07,3.07,0,0,1,.11.79,2.79,2.79,0,0,1-.55,1.58,3.28,3.28,0,0,1-.72.57,1.87,1.87,0,0,1-1,.28v2h-.58v-2a4.44,4.44,0,0,1-1.35-.47,1.51,1.51,0,0,1-.76-1,4.3,4.3,0,0,1-.2-1.09,2.35,2.35,0,0,1,.14-.79,1.89,1.89,0,0,1,.34-.63,2.35,2.35,0,0,1,.51-.41,1.58,1.58,0,0,1,.53-.25A1.74,1.74,0,0,1,247.93,109Zm.81,1.81.11,2.55a4.34,4.34,0,0,0,.56-.15,1,1,0,0,0,.43-.34,2.67,2.67,0,0,0,.29-.45,3.19,3.19,0,0,0,.11-.34,1.05,1.05,0,0,1,0-.13c0-.07,0-.11,0-.13a1.23,1.23,0,0,0,0-.23,4.46,4.46,0,0,0,0-.63,2.44,2.44,0,0,0-.17-.56,1.52,1.52,0,0,0-.3-.46,1,1,0,0,0-.3-.26.91.91,0,0,0-.22,0,.37.37,0,0,0-.32.14,1.31,1.31,0,0,0-.14.48A4.58,4.58,0,0,0,248.74,110.8Z" transform="translate(-13.79 -1.53)"/><path d="M214.36,125.64a1.52,1.52,0,0,1-1.14.63,1.11,1.11,0,0,1-.88-.4,1.62,1.62,0,0,1-.36-1.14,2.82,2.82,0,0,1,.28-1.24,2.15,2.15,0,0,1,.7-.85,1.49,1.49,0,0,1,.85-.28,1.13,1.13,0,0,1,1.05.67l.42-2h.63l-1.07,5.16h-.59Zm-1.74-1a2,2,0,0,0,.07.61.79.79,0,0,0,.27.38.67.67,0,0,0,.44.15,1,1,0,0,0,.79-.45,2.36,2.36,0,0,0,.47-1.48,1,1,0,0,0-.23-.7.8.8,0,0,0-.59-.25.81.81,0,0,0-.41.11,1.17,1.17,0,0,0-.38.34,2.56,2.56,0,0,0-.31.62A2.26,2.26,0,0,0,212.62,124.62Z" transform="translate(-13.79 -1.53)"/><path d="M215.38,126.18l2.47-2.61L216.39,121h.76l.66,1.17.31.54c.06.11.12.25.2.41.17-.23.44-.54.8-.93l1.14-1.19h.9l-2.5,2.67,1.42,2.49h-.75l-.84-1.51c-.08-.15-.18-.34-.29-.57a6.38,6.38,0,0,1-.46.55l-1.44,1.53Z" transform="translate(-13.79 -1.53)"/><path d="M215.77,133a1.55,1.55,0,0,1-1.14.63,1.15,1.15,0,0,1-.89-.39,1.66,1.66,0,0,1-.35-1.14,2.7,2.7,0,0,1,.28-1.25,2.07,2.07,0,0,1,.7-.85,1.48,1.48,0,0,1,.84-.28,1.12,1.12,0,0,1,1,.67l.42-2h.64l-1.08,5.16h-.59Zm-1.75-1a2,2,0,0,0,.08.61.84.84,0,0,0,.26.38.7.7,0,0,0,.45.15,1,1,0,0,0,.78-.45,2.28,2.28,0,0,0,.47-1.48,1,1,0,0,0-.23-.7.78.78,0,0,0-.58-.25.85.85,0,0,0-.42.11,1.05,1.05,0,0,0-.37.34,2.62,2.62,0,0,0-.44,1.29Z" transform="translate(-13.79 -1.53)"/><path d="M218.75,133l-.11.52a1.72,1.72,0,0,1-.44.06,1,1,0,0,1-.61-.19.47.47,0,0,1-.17-.38,3.86,3.86,0,0,1,.09-.57l.46-2.17h-.51l.1-.5h.51l.19-.92.73-.44-.28,1.36h.62l-.1.5h-.63l-.43,2.06a4.75,4.75,0,0,0-.08.48.24.24,0,0,0,.06.17.34.34,0,0,0,.22.06A2.22,2.22,0,0,0,218.75,133Z" transform="translate(-13.79 -1.53)"/><line class="cls-21" x1="198.09" y1="125.84" x2="206.35" y2="125.84"/><path d="M321.9,110.81l2-2.4-1.21-2.27h.88l.41.82c.15.3.29.6.41.88l1.3-1.74,1,0-1.91,2.38,1.22,2.28h-.88l-.48-.93c-.1-.2-.22-.45-.35-.74l-1.35,1.71Z" transform="translate(-13.79 -1.53)"/><path d="M329.75,112.62v.5h-2.83a1.13,1.13,0,0,1,.06-.36,2,2,0,0,1,.35-.57,6.28,6.28,0,0,1,.68-.65,6.13,6.13,0,0,0,.95-.9,1.08,1.08,0,0,0,.24-.63.69.69,0,0,0-.22-.53.93.93,0,0,0-1.19,0,.89.89,0,0,0-.23.63l-.54-.05a1.35,1.35,0,0,1,.42-.92,1.42,1.42,0,0,1,1-.32,1.38,1.38,0,0,1,1,.34,1.13,1.13,0,0,1,.36.85,1.24,1.24,0,0,1-.1.5,2.1,2.1,0,0,1-.35.53,9.88,9.88,0,0,1-.81.75,6.34,6.34,0,0,0-.61.54,1.79,1.79,0,0,0-.22.28Z" transform="translate(-13.79 -1.53)"/><line class="cls-1" x1="306.82" y1="101" x2="152.96" y2="101"/><path d="M319.22,102.52l-1.69,2.78.09.07,4.54-1.8,4.75-1-4.75-1-4.54-1.8-.09,0Z" transform="translate(-13.79 -1.53)"/><path class="cls-22" d="M233.25,102.57c7.06,0,7.09-4-.06-4" transform="translate(-13.79 -1.53)"/><path class="cls-22" d="M233.13,108.63c-16,0-16-10.07.14-10.07" transform="translate(-13.79 -1.53)"/><path class="cls-22" d="M233,108.63c29.92,0,30.05-17.29-.25-17.29" transform="translate(-13.79 -1.53)"/><path class="cls-22" d="M232.48,119.11c-46.63,0-46.83-27.77.4-27.77" transform="translate(-13.79 -1.53)"/><path class="cls-22" d="M232.44,119.11c19.41,0,33.33-3.4,41.71-8.25" transform="translate(-13.79 -1.53)"/><circle class="cls-23" cx="243.17" cy="115.32" r="0.81"/><path d="M256.43,126.27l3.64-6.41h1l1.06,6.41h-.83l-.31-1.85h-2.6l-1,1.85Zm2.34-2.51h2.12l-.25-1.61q-.13-1-.18-1.59a10.88,10.88,0,0,1-.64,1.3Z" transform="translate(-13.79 -1.53)"/><circle class="cls-23" cx="243.21" cy="67.71" r="0.81"/><line class="cls-1" x1="161.85" y1="136.48" x2="242.65" y2="86.81"/><path d="M176.82,137.28l0-3.26h-.11l-2.92,3.91-3.5,3.37,4.59-1.59,4.81-.84.06-.09Z" transform="translate(-13.79 -1.53)"/><ellipse class="cls-19" cx="219.43" cy="36.5" rx="56.73" ry="11.39"/><path d="M226,8.44,224.79,2h.83l.75,3.82c.13.7.22,1.26.26,1.68.27-.55.49-1,.66-1.3L229.58,2h.89L227,8.44Z" transform="translate(-13.79 -1.53)"/><line class="cls-24" x1="243.24" y1="68.49" x2="243.24" y2="114.96"/><path d="M288.77,49.47l.65.06a.6.6,0,0,0,.05.33.4.4,0,0,0,.19.17,1.17,1.17,0,0,0,.45.08,1,1,0,0,0,.83-.3,2.46,2.46,0,0,0,.31-.88l.06-.3a1.45,1.45,0,0,1-1.06.5,1.24,1.24,0,0,1-.94-.41,1.69,1.69,0,0,1-.39-1.19,2.27,2.27,0,0,1,.3-1.15,2.17,2.17,0,0,1,.72-.8,1.56,1.56,0,0,1,.86-.27,1.24,1.24,0,0,1,1.13.7l.13-.62h.58L291.89,49a3,3,0,0,1-.32.93,1.55,1.55,0,0,1-.56.52,1.84,1.84,0,0,1-.83.18,2.28,2.28,0,0,1-.78-.12,1,1,0,0,1-.48-.34.84.84,0,0,1-.16-.51A1.28,1.28,0,0,1,288.77,49.47Zm.8-2a1.75,1.75,0,0,0,.07.58.86.86,0,0,0,.3.41.77.77,0,0,0,.44.14,1,1,0,0,0,.62-.22,1.4,1.4,0,0,0,.5-.68,2.28,2.28,0,0,0,.2-.88,1,1,0,0,0-.26-.73.81.81,0,0,0-.63-.28.9.9,0,0,0-.45.13,1.32,1.32,0,0,0-.41.38,1.81,1.81,0,0,0-.28.61A2.08,2.08,0,0,0,289.57,47.48Z" transform="translate(-13.79 -1.53)"/><path d="M292.82,49.13l.78-3.74h.56l-.15.77a2.63,2.63,0,0,1,.56-.64.94.94,0,0,1,.57-.21,1,1,0,0,1,.47.14l-.27.59a.6.6,0,0,0-.36-.12,1,1,0,0,0-.68.37,2.87,2.87,0,0,0-.56,1.34l-.31,1.5Z" transform="translate(-13.79 -1.53)"/><path d="M297.74,48.67a2.51,2.51,0,0,1-.64.42,1.75,1.75,0,0,1-.65.13,1.15,1.15,0,0,1-.84-.31,1,1,0,0,1-.31-.78,1,1,0,0,1,.14-.55,1.09,1.09,0,0,1,.38-.39,1.59,1.59,0,0,1,.58-.21,5.31,5.31,0,0,1,.81-.06,2.92,2.92,0,0,0,.86-.13,1.73,1.73,0,0,0,.08-.43A.41.41,0,0,0,298,46a1,1,0,0,0-.64-.18,1.12,1.12,0,0,0-.66.18,1,1,0,0,0-.37.5l-.65,0a1.63,1.63,0,0,1,.63-.85,1.81,1.81,0,0,1,1.08-.3,1.7,1.7,0,0,1,1.1.33.81.81,0,0,1,.31.64,3.27,3.27,0,0,1-.09.7l-.21.92a4,4,0,0,0-.1.73,2.6,2.6,0,0,0,.08.5h-.65A3.5,3.5,0,0,1,297.74,48.67Zm.24-1.43-.29.08-.51.06a3.25,3.25,0,0,0-.79.13.66.66,0,0,0-.34.24.6.6,0,0,0-.12.36.55.55,0,0,0,.19.44.71.71,0,0,0,.52.18,1.22,1.22,0,0,0,.61-.17,1.16,1.16,0,0,0,.46-.47A2.65,2.65,0,0,0,298,47.24Z" transform="translate(-13.79 -1.53)"/><path d="M301.75,48.59a1.52,1.52,0,0,1-1.14.63,1.13,1.13,0,0,1-.88-.39,1.66,1.66,0,0,1-.36-1.14,2.83,2.83,0,0,1,.28-1.25,2.15,2.15,0,0,1,.7-.85,1.49,1.49,0,0,1,.85-.28,1.13,1.13,0,0,1,1.05.67l.42-2h.64l-1.08,5.16h-.59Zm-1.74-1a2,2,0,0,0,.07.61.79.79,0,0,0,.27.38.67.67,0,0,0,.44.15,1,1,0,0,0,.79-.45,2.28,2.28,0,0,0,.47-1.48,1,1,0,0,0-.23-.7.8.8,0,0,0-.59-.25.81.81,0,0,0-.41.11,1.17,1.17,0,0,0-.38.34,2.47,2.47,0,0,0-.31.63A2.2,2.2,0,0,0,300,47.57Z" transform="translate(-13.79 -1.53)"/><path d="M306.89,49.13l-1-5.16h.66l.6,3.08c.11.56.19,1,.22,1.35.21-.44.39-.79.53-1L309.75,44h.71l-2.83,5.16Z" transform="translate(-13.79 -1.53)"/><line class="cls-15" x1="243.17" y1="115.47" x2="213.72" y2="123.05"/><path d="M228.12,124.41l1.87,1.82-.07.07-3.87-.49-3.88.14,3.46-1.76,3.16-2.3.08,0Z" transform="translate(-13.79 -1.53)"/><line class="cls-15" x1="243.4" y1="115.25" x2="268.59" y2="95.7"/><path d="M281.88,97.61l-2.43-.93,0-.09,3.75-1.08,3.51-1.67c-.83,1-1.66,2-2.48,3l-2,3.36-.08,0Z" transform="translate(-13.79 -1.53)"/><path d="M288.77,98.19l.65.06a.6.6,0,0,0,.05.33.4.4,0,0,0,.19.17,1.1,1.1,0,0,0,.45.08,1,1,0,0,0,.83-.3,2.32,2.32,0,0,0,.3-.88l.07-.3a1.45,1.45,0,0,1-1.06.5,1.28,1.28,0,0,1-.95-.41,1.73,1.73,0,0,1-.38-1.19,2.27,2.27,0,0,1,.3-1.15,2.17,2.17,0,0,1,.72-.8,1.55,1.55,0,0,1,.85-.27,1.25,1.25,0,0,1,1.14.7l.13-.62h.58l-.75,3.61a3,3,0,0,1-.33.93,1.41,1.41,0,0,1-.56.52,1.77,1.77,0,0,1-.82.18,2.28,2.28,0,0,1-.78-.12.88.88,0,0,1-.48-.34.84.84,0,0,1-.16-.51A.62.62,0,0,1,288.77,98.19Zm.8-2a1.75,1.75,0,0,0,.07.58.86.86,0,0,0,.3.41.77.77,0,0,0,.44.14,1,1,0,0,0,.62-.22,1.46,1.46,0,0,0,.5-.68,2.26,2.26,0,0,0,.19-.88,1,1,0,0,0-.25-.73.81.81,0,0,0-.63-.28.9.9,0,0,0-.45.13,1.32,1.32,0,0,0-.41.38,1.82,1.82,0,0,0-.29.61A2.46,2.46,0,0,0,289.57,96.2Z" transform="translate(-13.79 -1.53)"/><path d="M292.82,97.85l.78-3.74h.56l-.16.77a2.87,2.87,0,0,1,.57-.64.91.91,0,0,1,.57-.21,1,1,0,0,1,.46.14l-.26.59a.6.6,0,0,0-.36-.12,1,1,0,0,0-.69.37,2.87,2.87,0,0,0-.55,1.34l-.32,1.5Z" transform="translate(-13.79 -1.53)"/><path d="M297.74,97.39a2.51,2.51,0,0,1-.64.42,1.75,1.75,0,0,1-.65.13,1.13,1.13,0,0,1-.84-.31,1,1,0,0,1-.32-.78,1,1,0,0,1,.15-.55,1.09,1.09,0,0,1,.38-.39,1.54,1.54,0,0,1,.57-.21,5.61,5.61,0,0,1,.82-.06,2.92,2.92,0,0,0,.86-.13,1.64,1.64,0,0,0,.07-.43.41.41,0,0,0-.16-.35,1,1,0,0,0-.65-.18,1.11,1.11,0,0,0-.65.18,1,1,0,0,0-.37.51l-.65-.06a1.63,1.63,0,0,1,.63-.85,1.81,1.81,0,0,1,1.08-.3,1.67,1.67,0,0,1,1.09.33.78.78,0,0,1,.31.64,3.27,3.27,0,0,1-.09.7l-.2.92a3.29,3.29,0,0,0-.1.73,2,2,0,0,0,.08.5h-.65A2.36,2.36,0,0,1,297.74,97.39ZM298,96l-.29.08-.51.06a3.15,3.15,0,0,0-.79.13.62.62,0,0,0-.34.24.6.6,0,0,0-.12.36.55.55,0,0,0,.19.44.7.7,0,0,0,.52.18,1.22,1.22,0,0,0,.61-.17,1.16,1.16,0,0,0,.46-.47A2.93,2.93,0,0,0,298,96Z" transform="translate(-13.79 -1.53)"/><path d="M301.75,97.31a1.52,1.52,0,0,1-1.14.63,1.13,1.13,0,0,1-.88-.39,1.66,1.66,0,0,1-.36-1.14,2.7,2.7,0,0,1,.28-1.25,2.15,2.15,0,0,1,.7-.85,1.48,1.48,0,0,1,.84-.28,1.14,1.14,0,0,1,1.06.67l.42-2h.63l-1.08,5.16h-.58Zm-1.75-1a2,2,0,0,0,.08.61.79.79,0,0,0,.27.38.67.67,0,0,0,.44.15,1,1,0,0,0,.79-.45,2.36,2.36,0,0,0,.47-1.48,1,1,0,0,0-.23-.7.8.8,0,0,0-.59-.25.81.81,0,0,0-.41.11,1.17,1.17,0,0,0-.38.34,2.56,2.56,0,0,0-.31.62A2.37,2.37,0,0,0,300,96.29Z" transform="translate(-13.79 -1.53)"/><path d="M306.89,97.85l-1-5.16h.66l.6,3.08c.11.56.18,1,.22,1.35.21-.44.39-.79.53-1.05l1.84-3.38h.71l-2.83,5.16Z" transform="translate(-13.79 -1.53)"/><line class="cls-15" x1="243.18" y1="67.72" x2="268.47" y2="48.09"/><path d="M281.76,50l-2.43-.93,0-.08,3.75-1.09,3.51-1.67-2.49,3-2,3.36-.08,0Z" transform="translate(-13.79 -1.53)"/><path class="cls-19" d="M176.48,38.15c8.22,32,26.13,64.39,56.75,64.39" transform="translate(-13.79 -1.53)"/><path class="cls-19" d="M290,38.15c-8.21,32-26.13,64.39-56.74,64.39" transform="translate(-13.79 -1.53)"/><line class="cls-24" x1="271.54" y1="45.68" x2="271.54" y2="93.37"/><path class="cls-15" d="M249.75,119c.29-3.16,1.78-5.81,4.31-7s5.46-.79,8.1.87" transform="translate(-13.79 -1.53)"/><path d="M228,97.49a5.71,5.71,0,0,1,.24-1.83,2.24,2.24,0,0,1,.69-1.07,1.8,1.8,0,0,1,1.16-.38,1.88,1.88,0,0,1,.91.21,1.75,1.75,0,0,1,.64.6,3.31,3.31,0,0,1,.4,1,6.15,6.15,0,0,1,.15,1.52,5.69,5.69,0,0,1-.24,1.82,2.22,2.22,0,0,1-.69,1.07,2,2,0,0,1-2.62-.28A4.27,4.27,0,0,1,228,97.49Zm.81,0a4.09,4.09,0,0,0,.37,2.1,1.07,1.07,0,0,0,1.83,0,6.17,6.17,0,0,0,0-4.21,1.13,1.13,0,0,0-.92-.52,1,1,0,0,0-.87.46A4.07,4.07,0,0,0,228.78,97.49Z" transform="translate(-13.79 -1.53)"/><circle class="cls-25" cx="219.43" cy="101.08" r="1.13"/><path d="M184.28,41.25l-1.16-6h.78l.7,3.6c.13.66.21,1.18.25,1.59.26-.52.46-.93.62-1.23l2.16-4h.83l-3.31,6Z" transform="translate(-13.79 -1.53)"/><path d="M189.68,43a7.39,7.39,0,0,1-1-1.81,5.72,5.72,0,0,1-.42-2.15,5.62,5.62,0,0,1,.31-1.88,7.84,7.84,0,0,1,1.15-2.08h.53c-.33.57-.55,1-.66,1.22a6.14,6.14,0,0,0-.39,1.19,6.77,6.77,0,0,0-.18,1.55,7.45,7.45,0,0,0,1.23,4Z" transform="translate(-13.79 -1.53)"/><path d="M190.5,41.25,192.41,39l-1.09-2.15h.82l.37.77c.14.3.26.58.37.84l1.26-1.62h.91l-1.84,2.22,1.11,2.16h-.83l-.43-.89c-.1-.19-.2-.42-.32-.7l-1.3,1.59Z" transform="translate(-13.79 -1.53)"/><path d="M197.54,41.25l.17-.84h.85l-.15.74a2,2,0,0,1-.43,1,1.15,1.15,0,0,1-.7.35l.07-.32c.33-.09.54-.39.65-.9Z" transform="translate(-13.79 -1.53)"/><path d="M199.41,41.25,201.32,39l-1.09-2.15h.82l.37.77c.14.3.26.58.37.84l1.26-1.62H204l-1.84,2.22,1.11,2.16h-.83l-.43-.89c-.1-.19-.2-.42-.32-.7l-1.3,1.59Z" transform="translate(-13.79 -1.53)"/><path d="M207,43h-.53a7.45,7.45,0,0,0,1.23-4,6.68,6.68,0,0,0-.18-1.54,5.83,5.83,0,0,0-.39-1.18,11.05,11.05,0,0,0-.66-1.24H207a7.84,7.84,0,0,1,1.15,2.08,5.62,5.62,0,0,1,.31,1.88,5.68,5.68,0,0,1-.42,2.15A7.72,7.72,0,0,1,207,43Z" transform="translate(-13.79 -1.53)"/><path d="M196.35,43.69h-.46V40.76a2.28,2.28,0,0,1-.43.31,2.72,2.72,0,0,1-.49.24v-.44a3.31,3.31,0,0,0,.68-.44,1.8,1.8,0,0,0,.41-.51h.29Z" transform="translate(-13.79 -1.53)"/><path d="M206.15,43.25v.44h-2.48a.86.86,0,0,1,.05-.32,2,2,0,0,1,.31-.5,5.76,5.76,0,0,1,.6-.57,5.44,5.44,0,0,0,.83-.79,1,1,0,0,0,.21-.56.62.62,0,0,0-.19-.46.77.77,0,0,0-.52-.19.74.74,0,0,0-.53.2.78.78,0,0,0-.2.56l-.47-.05a1.16,1.16,0,0,1,.36-.81,1.29,1.29,0,0,1,.86-.28,1.18,1.18,0,0,1,.85.3,1,1,0,0,1,.32.74,1.18,1.18,0,0,1-.1.45,1.79,1.79,0,0,1-.3.46,8.8,8.8,0,0,1-.71.66c-.28.23-.46.39-.54.47a1.5,1.5,0,0,0-.19.25Z" transform="translate(-13.79 -1.53)"/></svg>