<svg id="Layer_1" data-name="Layer 1" xmlns="http://www.w3.org/2000/svg" viewBox="0 0 83.32 24.95"><defs><style>.cls-1{fill:#fff;}</style></defs><path class="cls-1" d="M16.74,28.68c-.89.07-1.81.14-2.77.19.16-.6.29-1.2.41-1.8a10.16,10.16,0,0,0,.17-1.84c0-.86,0-1.72.08-2.58s.09-1.73.09-2.61q0-1-.09-2c-.05-.66-.08-1.33-.08-2a7.34,7.34,0,0,1,0-.81,7,7,0,0,0,.05-.8c0-.38,0-.74,0-1.1s-.07-.72-.12-1.1c-.13.63-.24,1.25-.34,1.88s-.22,1.24-.34,1.87a19.94,19.94,0,0,1-.57,2.07c-.22.69-.43,1.39-.62,2.08a7.63,7.63,0,0,1-.23.73,3.41,3.41,0,0,0-.18.75c-.15,1.06-.32,2.11-.49,3.16s-.36,2.1-.55,3.15l-1.93-.07c-.65,0-1.3-.06-2-.12,0-.33,0-.69-.07-1.08s-.06-.79-.11-1.19S7,24.67,7,24.28a9.71,9.71,0,0,0-.23-1.08c-.17-.64-.32-1.3-.43-2s-.25-1.34-.39-2a36.65,36.65,0,0,0-1.35-5.17c-.06.59-.1,1.18-.14,1.77S4.35,17,4.35,17.6s0,1,0,1.61,0,1.11,0,1.66.07,1.11.12,1.65.13,1.06.23,1.56c.13.65.27,1.29.41,1.94s.27,1.3.4,1.95L4.31,28H3c-.44,0-.87,0-1.31-.05L.41,27.9c.16-.9.3-1.78.44-2.64s.26-1.71.36-2.57.19-1.71.25-2.58.09-1.75.09-2.67v-.91c-.06-.78-.1-1.56-.14-2.33s-.1-1.54-.19-2.3a11.82,11.82,0,0,0-.35-2c-.19-.68-.36-1.34-.54-2,.32,0,.65,0,1-.1a8.47,8.47,0,0,1,1-.06,7.33,7.33,0,0,1,1.15.08,8.92,8.92,0,0,0,1.16.08h.13c.12.45.26.9.41,1.34a11,11,0,0,0,.56,1.26,4.58,4.58,0,0,1,.4.94c.1.32.19.65.27,1s.17.67.27,1a7,7,0,0,0,.35,1,19.87,19.87,0,0,1,.76,2c.22.7.45,1.39.69,2.08.15.41.31.81.45,1.21s.29.81.42,1.22l.76-2.82c.25-.92.5-1.86.73-2.82l1-3.87a31.88,31.88,0,0,0,.78-3.89c.59-.06,1.15-.14,1.71-.25A8.67,8.67,0,0,1,16,7.14h.81l.81,0c-.06.39-.11.8-.16,1.21a10.14,10.14,0,0,0-.07,1.23c0,.78,0,1.56.11,2.35s.17,1.57.26,2.35.18,1.58.26,2.37.11,1.58.11,2.37a8.35,8.35,0,0,0,.1,1.31c.07.45.13.88.2,1.29.11.62.21,1.23.3,1.84s.22,1.21.37,1.81a9.39,9.39,0,0,1,.25,1.5c0,.52.08,1,.1,1.55C18.54,28.5,17.63,28.61,16.74,28.68Z" transform="translate(-0.33 -4.85)"/><path class="cls-1" d="M31.91,28.68a14.84,14.84,0,0,0-1.51-.07c-.47,0-.94,0-1.4,0l-1.43.12a15.54,15.54,0,0,1-.1-1.78c0-.24,0-.47,0-.7a4.14,4.14,0,0,1,.1-.68L26,25.77a11.41,11.41,0,0,0-1.62.27,4.27,4.27,0,0,0-.24.61,4.16,4.16,0,0,0-.13.59c0,.2,0,.4,0,.6s0,.42,0,.64l-2.38.15c-.79,0-1.59.08-2.39.14.32-.8.66-1.59,1-2.38s.69-1.57,1-2.36.65-1.59.95-2.4a21,21,0,0,0,.77-2.48,24.31,24.31,0,0,1,.79-2.55c.31-.83.64-1.65,1-2.46s.7-1.62,1.06-2.43.71-1.62,1-2.45q.93,2.46,1.71,4.9t1.36,5A14.52,14.52,0,0,0,30.4,21c.22.6.45,1.2.68,1.82.38,1,.78,2,1.18,3s.78,2,1.13,3ZM26.5,17.47l-1.22,5.16,1.89-.23Z" transform="translate(-0.33 -4.85)"/><path class="cls-1" d="M45.69,12.68a10.93,10.93,0,0,0-.06,1.15c0,.3,0,.61,0,.91s0,.6,0,.9h-.58a9.74,9.74,0,0,1-1.63-.07,14.27,14.27,0,0,0-1.63-.1,4.44,4.44,0,0,1-.63,0,5.77,5.77,0,0,1-.62-.09,10.39,10.39,0,0,1,.16,1.12c0,.42.06.85.08,1.29s0,.87,0,1.31v1.18A9.69,9.69,0,0,0,41,21.87a8.61,8.61,0,0,1,.14,1.61c0,.26,0,.51,0,.75s0,.5,0,.74a13.67,13.67,0,0,0,.19,2.31,18.24,18.24,0,0,0,.52,2.24l-1,0-.94,0a18.7,18.7,0,0,0-2.12.12l-2.1.2,0-.55a8.79,8.79,0,0,1,.08-1.36c.06-.44.13-.89.21-1.33l.24-1.34a10,10,0,0,0,.15-1.34,18.66,18.66,0,0,0,0-2.11c0-.69,0-1.38,0-2.08a8.77,8.77,0,0,1,0-1c0-.35.07-.68.12-1s.1-.66.15-1,.08-.68.11-1h-.17a4.43,4.43,0,0,0-1.31.08L34.06,16a1.55,1.55,0,0,1-.56.22c-.29.06-.58.12-.9.17l-.93.12-.65.07c.08-.35.17-.71.25-1.06a5.08,5.08,0,0,0,.12-1.1c0-.65,0-1.3-.06-1.94s-.07-1.3-.07-1.95l1.41.46c.47.16.94.3,1.42.42s1,.23,1.44.32A8.93,8.93,0,0,0,37,11.8h7.63a2.42,2.42,0,0,0,.59-.09l.58-.17C45.76,11.92,45.73,12.3,45.69,12.68Z" transform="translate(-0.33 -4.85)"/><path class="cls-1" d="M59.44,28.77l-1.11-.19a6,6,0,0,0-1.11-.1,7.09,7.09,0,0,0-1.1.09L55,28.74v-.81c0-.52,0-1,0-1.42s.06-.83.09-1.23.07-.8.09-1.23,0-.9,0-1.42v-.46a6.47,6.47,0,0,1-.87-.06,4.66,4.66,0,0,1-.84-.19L53,21.76a2.08,2.08,0,0,0-.55-.07,5.8,5.8,0,0,0-1.11.1L50.26,22c0,.67.09,1.29.16,1.87s.15,1.12.24,1.67.18,1.1.27,1.66.16,1.19.22,1.86a5.07,5.07,0,0,1-.55,0h-.92a2.6,2.6,0,0,1-.4,0,2,2,0,0,1-.44-.09c-.17,0-.32-.09-.47-.14l-.4-.15a.8.8,0,0,0-.28-.07c-.22,0-.44,0-.65,0l-.65.07c0-1,.08-1.85.17-2.69s.17-1.67.26-2.48.17-1.64.24-2.48.11-1.74.11-2.68a29.87,29.87,0,0,0-.25-3.78c-.17-1.25-.37-2.51-.61-3.77a3.93,3.93,0,0,1,1.09-.15h.37a5,5,0,0,0,1.08.12h1.79c0,.69-.09,1.33-.12,1.91s-.05,1.15-.08,1.71,0,1.14,0,1.72,0,1.24-.06,1.94l.88.07.88,0a4.37,4.37,0,0,0,.68-.06l.78-.13.8-.16.71-.13c-.05-.62-.09-1.2-.12-1.72s-.08-1-.13-1.52-.09-1-.15-1.52-.11-1.09-.18-1.71a5.13,5.13,0,0,1,.66-.13,4.87,4.87,0,0,1,.66,0,4,4,0,0,1,1.16.17,4.06,4.06,0,0,0,1.16.16h.32a1.43,1.43,0,0,0,.29,0c0,.51,0,1,0,1.38s0,.81,0,1.2,0,.78,0,1.19,0,.86,0,1.37c0,1,0,2,.14,2.94s.19,1.85.3,2.75.22,1.83.31,2.76a27.72,27.72,0,0,1,.12,2.95Z" transform="translate(-0.33 -4.85)"/><path class="cls-1" d="M72.68,13.11c-.05.27-.1.55-.17.84s-.13.57-.21.82a3.27,3.27,0,0,1-.18.54,1,1,0,0,1-.37.26l-.7.32-.74.3c-.24.09-.4.16-.5.21a11.31,11.31,0,0,1-1.68.67l-1.73.56-.25.09-.38.14L65.4,18a.93.93,0,0,0-.21.09.79.79,0,0,0-.23.36c-.1.21-.19.44-.29.69s-.17.5-.23.73a1.91,1.91,0,0,0-.1.48,8.48,8.48,0,0,0,.14,1.57c.09.53.17,1.06.24,1.57l3.33-.65c1.11-.21,2.22-.44,3.36-.7,0,.23,0,.47,0,.71s0,.49,0,.74a10,10,0,0,1-.06,1.08q-.06.56-.09,1.08-.33,0-.66,0h-.69c-1,0-2.06,0-3.08.1s-2,.1-3.08.1h-.41a1.55,1.55,0,0,1-.37,0,7.05,7.05,0,0,0-1-.11l-1,0H60.5c-.06-.55-.1-1.1-.14-1.65s-.06-1.1-.06-1.66a7.56,7.56,0,0,1,.12-1.33c.09-.44.15-.89.21-1.34a4.35,4.35,0,0,0,0-.51c0-.22,0-.45,0-.69s0-.47.07-.66a1.12,1.12,0,0,1,.09-.4,1.11,1.11,0,0,1,.31-.37,3.26,3.26,0,0,1,.51-.35c.19-.1.37-.2.55-.28a4.15,4.15,0,0,1,.44-.19l1.45-.56c.47-.18,1-.35,1.45-.51a2.31,2.31,0,0,0,.49-.18l.54-.27.51-.25a1.24,1.24,0,0,1,.39-.14.51.51,0,0,0,.24-.15,3.11,3.11,0,0,0,.29-.33,2.31,2.31,0,0,0,.24-.37.6.6,0,0,0,.1-.27,4.53,4.53,0,0,0-.06-.71l-.15-.79c-.06-.26-.11-.52-.15-.77a3.51,3.51,0,0,1-.07-.69.09.09,0,0,0,0-.05l0,0a2.24,2.24,0,0,0-.29-.13L67.18,10l-.42-.15a.78.78,0,0,0-.55,0l-.41.1-.4.12a1,1,0,0,0-.27.09c-.09,0-.17.14-.23.34a5,5,0,0,0-.18.67,6.83,6.83,0,0,0-.14.71c0,.22-.07.38-.09.47a4.2,4.2,0,0,0-.93-.1h-.23l-.23,0-.7.18a3.86,3.86,0,0,1-.72.12l-1.25.1c0-.13.09-.35.17-.65s.18-.63.29-1,.24-.77.37-1.18.28-.78.42-1.13a5.37,5.37,0,0,1,.41-.89.86.86,0,0,1,.37-.43l.65-.27c.25-.1.5-.19.77-.27a7.78,7.78,0,0,1,.76-.2,2.87,2.87,0,0,1,.65-.09.34.34,0,0,1,.2,0,8,8,0,0,0,1.34.15l1.33,0,.54,0c.26,0,.52.06.79.1a6.82,6.82,0,0,1,.74.16.74.74,0,0,1,.42.25,12.81,12.81,0,0,1,.66,1.21A8.43,8.43,0,0,0,72,9.67a1.93,1.93,0,0,1,.28.56c.09.26.16.53.23.81s.12.57.17.84a5,5,0,0,1,.06.66A4.54,4.54,0,0,1,72.68,13.11Z" transform="translate(-0.33 -4.85)"/><path class="cls-1" d="M83.61,19.38c0,.25-.07.51-.12.76l-1.32.1c0,.69-.08,1.38-.15,2.07s-.1,1.39-.1,2.08,0,1.21.06,1.77.09,1.16.15,1.77l-.59,0H81a12.23,12.23,0,0,0-2,.16l-2,.29c0-.31.07-.65.11-1l.12-1.1c0-.36.08-.73.11-1.09s0-.69,0-1a4.87,4.87,0,0,1,0-.65c0-.23.06-.44.08-.64.07-.51.14-1,.23-1.52s.15-1,.22-1.52l-.83-.1c-.27,0-.55,0-.84,0h-.11a.17.17,0,0,0-.12,0c-.82.08-1.65.16-2.49.21l-2.5.17c.06-.18.12-.4.21-.66s.17-.51.28-.78.21-.51.33-.76a3.32,3.32,0,0,1,.37-.57l1.55-2c.5-.66,1-1.32,1.55-2l.85-1.08c.3-.37.57-.74.83-1.11.49-.75,1-1.51,1.45-2.27s1-1.52,1.53-2.25c.25-.31.52-.63.81-.94s.58-.6.87-.88c.09.78.17,1.54.26,2.3s.15,1.52.22,2.29.07,1.43.06,2.15,0,1.42,0,2.14c0,1,.07,1.95.1,3l1.25-.19c0,.15,0,.3,0,.43s0,.29,0,.44a4.48,4.48,0,0,0,0,.64,4.62,4.62,0,0,1,.05.65A6,6,0,0,1,83.61,19.38Zm-6.72-4.61a22.38,22.38,0,0,0-1.54,2.44A14.78,14.78,0,0,1,76.82,17c.49,0,1-.07,1.49-.13,0-.76.07-1.51.12-2.26s.07-1.5.1-2.25C78,13.2,77.45,14,76.89,14.77Z" transform="translate(-0.33 -4.85)"/></svg>