<svg id="Layer_1" data-name="Layer 1" xmlns="http://www.w3.org/2000/svg" xmlns:xlink="http://www.w3.org/1999/xlink" viewBox="0 0 256 256"><defs><style>.cls-1{fill:#00adb0;}.cls-2{fill:url(#linear-gradient);}.cls-3{fill:#fff;}</style><linearGradient id="linear-gradient" x1="69.05" y1="184.3" x2="216.18" y2="37.17" gradientTransform="matrix(1, 0, 0, -1, 0, 258)" gradientUnits="userSpaceOnUse"><stop offset="0" stop-color="#949490"/><stop offset="0.22" stop-color="#acaaa8"/><stop offset="0.56" stop-color="#cfcdcc"/><stop offset="0.83" stop-color="#e7e6e6"/><stop offset="1" stop-color="#f1f0f0"/></linearGradient></defs><circle class="cls-1" cx="128" cy="128" r="128"/><path class="cls-2" d="M133.34,255.88a128,128,0,0,0,121.8-113.06L190.45,77.21a8.42,8.42,0,0,0-6.11-2.65H71.66A8.41,8.41,0,0,0,63.27,83v77.53a8.18,8.18,0,0,0,.14,1.49,8.4,8.4,0,0,0,2.43,4.52L89,189.24l-7.88,3.89c-1.63.8-2.17,1.52-1.66,1.94h0l3,3h-.91a8.28,8.28,0,0,1-2.24-.27v4a.75.75,0,0,0,.21.23h0Z"/><path class="cls-3" d="M174.43,198.1H81.57a8.28,8.28,0,0,1-2.24-.27v4c.16.38.9.61,2.24.61h92.86c1.34,0,2.08-.23,2.24-.61v-4A8.23,8.23,0,0,1,174.43,198.1Z"/><path class="cls-3" d="M174.87,193.13l-11.23-5.55a26.93,26.93,0,0,0-10-2.35h-4.31v6.37H106.65v-6.37h-4.31a26.93,26.93,0,0,0-10,2.35l-11.23,5.55c-2.62,1.29-2.43,2.35.44,2.35h92.86C177.3,195.48,177.49,194.42,174.87,193.13Z"/><rect class="cls-3" x="109.27" y="171.48" width="37.47" height="17.5"/><path class="cls-3" d="M184.34,74.56H71.66A8.41,8.41,0,0,0,63.27,83v77.53a8.41,8.41,0,0,0,8.39,8.38H184.34a8.41,8.41,0,0,0,8.4-8.38V83A8.42,8.42,0,0,0,184.34,74.56ZM186,160.48a1.7,1.7,0,0,1-1.68,1.67H71.66A1.7,1.7,0,0,1,70,160.48V83a1.7,1.7,0,0,1,1.68-1.68H184.34A1.7,1.7,0,0,1,186,83v77.53Z"/><polygon class="cls-3" points="158.56 140.41 160.89 142.95 164.58 142.95 164.58 137.46 158.56 140.41"/><path class="cls-3" d="M135.74,136.52h-7.59v-7.43h5.78l-1-4H100.43v-3.63h55.14v3.63H140.83l23.75,8V97.38H91.42V143H137.3Zm-10.2-33.59h30v2.88h-30Zm-25.11,0h23.13v2.88H100.43Zm0,6.19h55.14v3.63H100.43Zm0,6.19h55.14v3.63H100.43Zm25.11,21.21H106.6v-7.43h18.94Z"/><polygon class="cls-3" points="165.35 151.69 154.26 139.6 162.91 135.37 135.93 126.25 142.66 153.88 147.65 145.65 158.73 157.74 165.35 151.69"/></svg>