<svg id="Layer_1" data-name="Layer 1" xmlns="http://www.w3.org/2000/svg" xmlns:xlink="http://www.w3.org/1999/xlink" viewBox="0 0 256 256"><defs><style>.cls-1{fill:#c8c72d;}.cls-2{fill:url(#linear-gradient);}.cls-3{fill:#fff;}</style><linearGradient id="linear-gradient" x1="70.29" y1="186.7" x2="218" y2="38.99" gradientTransform="matrix(1, 0, 0, -1, 0, 258)" gradientUnits="userSpaceOnUse"><stop offset="0" stop-color="#949490"/><stop offset="0.22" stop-color="#acaaa8"/><stop offset="0.56" stop-color="#cfcdcc"/><stop offset="0.83" stop-color="#e7e6e6"/><stop offset="1" stop-color="#f1f0f0"/></linearGradient></defs><circle class="cls-1" cx="128" cy="128" r="128"/><path class="cls-2" d="M255.64,137.69,196.78,78.83l-.84-.84H167.08L152.52,63.44l0,0-.11-.12c-4.63-4.63-18.83,1.76-34.26,14.63H63.59V91.78l3.32,3.33H63.59V108l3.31,3.31H63.59V124.2l3.33,3.33H63.59v12.89l3.32,3.31H63.59v12.88l3.33,3.33H63.59v12.35L69,177.65H63.59v5.92l73.1,72.13A128,128,0,0,0,255.64,137.69Z"/><path class="cls-3" d="M81.27,134.59a7.41,7.41,0,0,1-1.36-1.9l-2.07,2.07a2.31,2.31,0,0,0,0,3.26,2.26,2.26,0,0,0,1.63.68,2.3,2.3,0,0,0,1.64-.68l2-2.06A7.36,7.36,0,0,1,81.27,134.59Z"/><path class="cls-3" d="M92,123.82,85.16,117c-3.65,7.31-4.58,13-1.94,15.68s8.38,1.7,15.68-2Z"/><path class="cls-3" d="M133,103.15c16-17.47,24.56-34.62,19.37-39.79s-22.31,3.42-39.75,19.44Z"/><path class="cls-3" d="M120.86,94.93,110.6,84.69c-1,.94-2,1.9-3,2.89l10.31,10.29,10.31,10.29c1-1,1.94-2,2.88-3Z"/><path class="cls-3" d="M101.45,129.32c7.43-4.16,16.17-10.82,24.82-19.22L105.68,89.55c-8.38,8.67-15,17.42-19.16,24.86Z"/><path class="cls-3" d="M157.91,92.75l-.31-3L155.17,75a69.5,69.5,0,0,1-8.79,16l1.54,1.5-18.53,21.75a4.93,4.93,0,0,0-4.51,8.29l0,0a4.93,4.93,0,0,0,8.19-4.94Z"/><path class="cls-3" d="M132.26,192.47h-4.07c-.37-5.16-3.55-8.9-8.28-8.9H63.59v-5.92h56.32a11.59,11.59,0,0,1,10.28,6.4,11.58,11.58,0,0,1,10.28-6.4h56.31v5.92H140.47C135.73,183.57,132.64,187.31,132.26,192.47Z"/><path class="cls-3" d="M79.48,124.2a38.37,38.37,0,0,1,3.21-8.47l.41-.82v0l.22-.4,1.1-2.19.08.09c.2-.36.42-.71.63-1.07H63.59V124.2Z"/><path class="cls-3" d="M76.41,140.4a4.33,4.33,0,0,1-.53-.43,5.07,5.07,0,0,1,0-7.15l3.17-3.17a13.26,13.26,0,0,1-.06-2.12H63.59V140.4Z"/><path class="cls-3" d="M120.52,124.2a12.35,12.35,0,0,1,2.36.25h0l0,0a7.73,7.73,0,0,1-2.11-5.49c-2.2,1.88-4.4,3.65-6.57,5.3Z"/><polygon class="cls-3" points="160.59 91.78 196.78 91.78 196.78 78 158.48 78 160.35 89.35 160.59 91.78"/><path class="cls-3" d="M120.52,156.61a12.12,12.12,0,0,1,9.67,4.86,12.14,12.14,0,0,1,9.67-4.86h56.92V143.73H139.86c-7.14,0-9.66,8.57-9.66,8.57s-2.72-8.57-9.68-8.57H63.59v12.88Z"/><path class="cls-3" d="M63.59,108h23.6A127.86,127.86,0,0,1,96.9,95.11H63.59Z"/><path class="cls-3" d="M99.82,91.78c1.2-1,11.08-11.21,14-13.79H63.59V91.78Z"/><path class="cls-3" d="M139.86,127.53c-7.14,0-9.66,8.56-9.66,8.56s-2.72-8.56-9.68-8.56h-11c-2.06,1.41-4.09,2.69-6,3.81l.09.09-2.24,1.13-.35.19h0l-.82.41c-5,2.49-9.2,3.76-12.55,3.76a10.32,10.32,0,0,1-1.38-.09L83.07,140a3.49,3.49,0,0,1-.52.43h38a12.15,12.15,0,0,1,9.67,4.86,12.14,12.14,0,0,1,9.67-4.86h56.92V127.53Z"/><path class="cls-3" d="M139.86,159.94c-7.14,0-9.66,8.57-9.66,8.57s-2.72-8.57-9.68-8.57H63.59v12.34h56.32a14.19,14.19,0,0,1,10.28,4.45,14.19,14.19,0,0,1,10.28-4.45h56.31V159.94Z"/><polygon class="cls-3" points="159.46 95.11 146.63 107.99 196.78 107.99 196.78 95.11 159.46 95.11"/><path class="cls-3" d="M143.31,111.32l-7.24,7.26a7.66,7.66,0,0,1-7.67,8.2h0l-.5,0a12.41,12.41,0,0,1,2.29,2.29,12.13,12.13,0,0,1,9.67-4.85h56.92V111.32Z"/></svg>